<?xml version="1.0" standalone="no"?>
<!DOCTYPE svg PUBLIC "-//W3C//DTD SVG 20010904//EN"
 "http://www.w3.org/TR/2001/REC-SVG-20010904/DTD/svg10.dtd">
<svg version="1.0" xmlns="http://www.w3.org/2000/svg"
 width="225.000000pt" height="225.000000pt" viewBox="0 0 225.000000 225.000000"
 preserveAspectRatio="xMidYMid meet">

<g transform="translate(0.000000,225.000000) scale(0.100000,-0.100000)"
fill="#000000" stroke="none">
<path d="M0 1125 l0 -1125 1125 0 1125 0 0 1125 0 1125 -1125 0 -1125 0 0
-1125z m1346 991 c189 -38 369 -134 510 -271 144 -141 227 -285 276 -482 32
-126 32 -350 0 -477 -108 -429 -452 -720 -907 -768 -206 -21 -402 14 -590 106
-259 128 -435 338 -522 621 -25 85 -27 101 -27 280 0 178 2 196 27 280 125
414 442 671 897 729 60 7 262 -3 336 -18z"/>
<path d="M978 1939 c-310 -32 -578 -262 -659 -566 -30 -111 -30 -280 -1 -386
76 -270 283 -477 549 -548 106 -29 279 -31 383 -5 301 75 529 316 581 612 18
106 7 273 -25 369 -117 348 -455 562 -828 524z m380 -774 c80 -34 125 -106
126 -201 0 -119 -80 -205 -199 -212 -82 -5 -128 11 -179 62 -107 107 -77 286
59 347 50 23 143 24 193 4z"/>
</g>
</svg>
